<svg width="529" height="187" viewBox="0 0 529 187" fill="none" xmlns="http://www.w3.org/2000/svg">
<g opacity="0.21">
<path d="M0 187L-8.74228e-08 185L2 185L2 187L0 187Z" fill="white"/>
<path d="M-7.43094e-07 170L-8.30516e-07 168L2 168L2 170L-7.43094e-07 170Z" fill="white"/>
<path d="M17 185L17 187L19 187L19 185L17 185Z" fill="white"/>
<path d="M17 170L17 168L19 168L19 170L17 170Z" fill="white"/>
<path d="M-1.57361e-06 151L-1.48619e-06 153L2 153L2 151L-1.57361e-06 151Z" fill="white"/>
<path d="M-2.22928e-06 136L-2.3167e-06 134L2 134L2 136L-2.22928e-06 136Z" fill="white"/>
<path d="M17 151L17 153L19 153L19 151L17 151Z" fill="white"/>
<path d="M17 136L17 134L19 134L19 136L17 136Z" fill="white"/>
<path d="M34 185L34 187L36 187L36 185L34 185Z" fill="white"/>
<path d="M34 170L34 168L36 168L36 170L34 170Z" fill="white"/>
<path d="M51 185L51 187L53 187L53 185L51 185Z" fill="white"/>
<path d="M51 170L51 168L53 168L53 170L51 170Z" fill="white"/>
<path d="M34 151L34 153L36 153L36 151L34 151Z" fill="white"/>
<path d="M34 136L34 134L36 134L36 136L34 136Z" fill="white"/>
<path d="M51 151L51 153L53 153L53 151L51 151Z" fill="white"/>
<path d="M51 136L51 134L53 134L53 136L51 136Z" fill="white"/>
<path d="M-2.97237e-06 119L-3.0598e-06 117L2 117L2 119L-2.97237e-06 119Z" fill="white"/>
<path d="M-3.71547e-06 102L-3.80289e-06 100L2 100L2 102L-3.71547e-06 102Z" fill="white"/>
<path d="M17 117L17 119L19 119L19 117L17 117Z" fill="white"/>
<path d="M17 102L17 100L19 100L19 102L17 102Z" fill="white"/>
<path d="M-4.54598e-06 83L-4.45856e-06 85L2 85L2 83L-4.54598e-06 83Z" fill="white"/>
<path d="M-5.20166e-06 68L-5.28908e-06 66L1.99999 66L1.99999 68L-5.20166e-06 68Z" fill="white"/>
<path d="M17 83L17 85L19 85L19 83L17 83Z" fill="white"/>
<path d="M17 68L17 66L19 66L19 68L17 68Z" fill="white"/>
<path d="M34 117L34 119L36 119L36 117L34 117Z" fill="white"/>
<path d="M34 102L34 100L36 100L36 102L34 102Z" fill="white"/>
<path d="M51 117L51 119L53 119L53 117L51 117Z" fill="white"/>
<path d="M51 102L51 100L53 100L53 102L51 102Z" fill="white"/>
<path d="M34 83L34 85L36 85L36 83L34 83Z" fill="white"/>
<path d="M34 68L34 66L36 66L36 68L34 68Z" fill="white"/>
<path d="M51 83L51 85L53 85L53 83L51 83Z" fill="white"/>
<path d="M51 68L51 66L53 66L53 68L51 68Z" fill="white"/>
<path d="M68 187L68 185L70 185L70 187L68 187Z" fill="white"/>
<path d="M68 170L68 168L70 168L70 170L68 170Z" fill="white"/>
<path d="M85 185L85 187L87 187L87 185L85 185Z" fill="white"/>
<path d="M85 170L85 168L87 168L87 170L85 170Z" fill="white"/>
<path d="M68 151L68 153L70 153L70 151L68 151Z" fill="white"/>
<path d="M68 136L68 134L70 134L70 136L68 136Z" fill="white"/>
<path d="M85 151L85 153L87 153L87 151L85 151Z" fill="white"/>
<path d="M85 136L85 134L87 134L87 136L85 136Z" fill="white"/>
<path d="M102 185L102 187L104 187L104 185L102 185Z" fill="white"/>
<path d="M102 170L102 168L104 168L104 170L102 170Z" fill="white"/>
<path d="M119 185L119 187L121 187L121 185L119 185Z" fill="white"/>
<path d="M119 170L119 168L121 168L121 170L119 170Z" fill="white"/>
<path d="M102 151L102 153L104 153L104 151L102 151Z" fill="white"/>
<path d="M102 136L102 134L104 134L104 136L102 136Z" fill="white"/>
<path d="M119 151L119 153L121 153L121 151L119 151Z" fill="white"/>
<path d="M119 136L119 134L121 134L121 136L119 136Z" fill="white"/>
<path d="M68 119L68 117L70 117L70 119L68 119Z" fill="white"/>
<path d="M68 102L68 100L70 100L70 102L68 102Z" fill="white"/>
<path d="M85 117L85 119L87 119L87 117L85 117Z" fill="white"/>
<path d="M85 102L85 100L87 100L87 102L85 102Z" fill="white"/>
<path d="M68 83L68 85L70 85L70 83L68 83Z" fill="white"/>
<path d="M68 68L68 66L70 66L70 68L68 68Z" fill="white"/>
<path d="M85 83L85 85L87 85L87 83L85 83Z" fill="white"/>
<path d="M85 68L85 66L87 66L87 68L85 68Z" fill="white"/>
<path d="M102 117L102 119L104 119L104 117L102 117Z" fill="white"/>
<path d="M102 102L102 100L104 100L104 102L102 102Z" fill="white"/>
<path d="M119 117L119 119L121 119L121 117L119 117Z" fill="white"/>
<path d="M119 102L119 100L121 100L121 102L119 102Z" fill="white"/>
<path d="M102 83L102 85L104 85L104 83L102 83Z" fill="white"/>
<path d="M102 68L102 66L104 66L104 68L102 68Z" fill="white"/>
<path d="M119 83L119 85L121 85L121 83L119 83Z" fill="white"/>
<path d="M119 68L119 66L121 66L121 68L119 68Z" fill="white"/>
<path d="M-5.94475e-06 51L-6.03217e-06 49L1.99999 49L1.99999 51L-5.94475e-06 51Z" fill="white"/>
<path d="M-6.68784e-06 34L-6.77527e-06 32L1.99999 32L1.99999 34L-6.68784e-06 34Z" fill="white"/>
<path d="M17 49L17 51L19 51L19 49L17 49Z" fill="white"/>
<path d="M17 34L17 32L19 32L19 34L17 34Z" fill="white"/>
<path d="M-7.51836e-06 15L-7.43094e-06 17L1.99999 17L1.99999 15L-7.51836e-06 15Z" fill="white"/>
<path d="M-8.17403e-06 0L-8.26145e-06 -2L1.99999 -2L1.99999 -8.74228e-08L-8.17403e-06 0Z" fill="white"/>
<path d="M17 15L17 17L19 17L19 15L17 15Z" fill="white"/>
<path d="M17 -7.43094e-07L17 -2L19 -2L19 -8.30516e-07L17 -7.43094e-07Z" fill="white"/>
<path d="M34 49L34 51L36 51L36 49L34 49Z" fill="white"/>
<path d="M34 34L34 32L36 32L36 34L34 34Z" fill="white"/>
<path d="M51 49L51 51L53 51L53 49L51 49Z" fill="white"/>
<path d="M51 34L51 32L53 32L53 34L51 34Z" fill="white"/>
<path d="M34 15L34 17L36 17L36 15L34 15Z" fill="white"/>
<path d="M34 -1.48619e-06L34 -2L36 -2L36 -1.57361e-06L34 -1.48619e-06Z" fill="white"/>
<path d="M51 15L51 17L53 17L53 15L51 15Z" fill="white"/>
<path d="M51 -2.22928e-06L51 -2L53 -2L53 -2.3167e-06L51 -2.22928e-06Z" fill="white"/>
<path d="M-8.91712e-06 -17L-9.00455e-06 -19L1.99999 -19L1.99999 -17L-8.91712e-06 -17Z" fill="white"/>
<path d="M-9.66022e-06 -34L-9.74764e-06 -36L1.99999 -36L1.99999 -34L-9.66022e-06 -34Z" fill="white"/>
<path d="M17 -19L17 -17L19 -17L19 -19L17 -19Z" fill="white"/>
<path d="M17 -34L17 -36L19 -36L19 -34L17 -34Z" fill="white"/>
<path d="M-1.04907e-05 -53L-1.04033e-05 -51L1.99999 -51L1.99999 -53L-1.04907e-05 -53Z" fill="white"/>
<path d="M-1.11464e-05 -68L-1.12338e-05 -70L1.99999 -70L1.99999 -68L-1.11464e-05 -68Z" fill="white"/>
<path d="M17 -53L17 -51L19 -51L19 -53L17 -53Z" fill="white"/>
<path d="M17 -68L17 -70L19 -70L19 -68L17 -68Z" fill="white"/>
<path d="M34 -19L34 -17L36 -17L36 -19L34 -19Z" fill="white"/>
<path d="M34 -34L34 -36L36 -36L36 -34L34 -34Z" fill="white"/>
<path d="M51 -19L51 -17L53 -17L53 -19L51 -19Z" fill="white"/>
<path d="M51 -34L51 -36L53 -36L53 -34L51 -34Z" fill="white"/>
<path d="M34 -53L34 -51L36 -51L36 -53L34 -53Z" fill="white"/>
<path d="M34 -68L34 -70L36 -70L36 -68L34 -68Z" fill="white"/>
<path d="M51 -53L51 -51L53 -51L53 -53L51 -53Z" fill="white"/>
<path d="M51 -68L51 -70L53 -70L53 -68L51 -68Z" fill="white"/>
<path d="M68 51L68 49L70 49L70 51L68 51Z" fill="white"/>
<path d="M68 34L68 32L70 32L70 34L68 34Z" fill="white"/>
<path d="M85 49L85 51L87 51L87 49L85 49Z" fill="white"/>
<path d="M85 34L85 32L87 32L87 34L85 34Z" fill="white"/>
<path d="M68 15L68 17L70 17L70 15L68 15Z" fill="white"/>
<path d="M68 -2.97237e-06L68 -2L70 -2L70 -3.0598e-06L68 -2.97237e-06Z" fill="white"/>
<path d="M85 15L85 17L87 17L87 15L85 15Z" fill="white"/>
<path d="M85 -3.71547e-06L85 -2L87 -2L87 -3.80289e-06L85 -3.71547e-06Z" fill="white"/>
<path d="M102 49L102 51L104 51L104 49L102 49Z" fill="white"/>
<path d="M102 34L102 32L104 32L104 34L102 34Z" fill="white"/>
<path d="M119 49L119 51L121 51L121 49L119 49Z" fill="white"/>
<path d="M119 34L119 32L121 32L121 34L119 34Z" fill="white"/>
<path d="M102 15L102 17L104 17L104 15L102 15Z" fill="white"/>
<path d="M102 -4.45856e-06L102 -2L104 -2L104 -4.54598e-06L102 -4.45856e-06Z" fill="white"/>
<path d="M119 15L119 17L121 17L121 15L119 15Z" fill="white"/>
<path d="M119 -5.20166e-06L119 -2.00001L121 -2.00001L121 -5.28908e-06L119 -5.20166e-06Z" fill="white"/>
<path d="M68 -17L68 -19L70 -19L70 -17L68 -17Z" fill="white"/>
<path d="M68 -34L68 -36L70 -36L70 -34L68 -34Z" fill="white"/>
<path d="M85 -19L85 -17L87 -17L87 -19L85 -19Z" fill="white"/>
<path d="M85 -34L85 -36L87 -36L87 -34L85 -34Z" fill="white"/>
<path d="M68 -53L68 -51L70 -51L70 -53L68 -53Z" fill="white"/>
<path d="M68 -68L68 -70L70 -70L70 -68L68 -68Z" fill="white"/>
<path d="M85 -53L85 -51L87 -51L87 -53L85 -53Z" fill="white"/>
<path d="M85 -68L85 -70L87 -70L87 -68L85 -68Z" fill="white"/>
<path d="M102 -19L102 -17L104 -17L104 -19L102 -19Z" fill="white"/>
<path d="M102 -34L102 -36L104 -36L104 -34L102 -34Z" fill="white"/>
<path d="M119 -19L119 -17L121 -17L121 -19L119 -19Z" fill="white"/>
<path d="M119 -34L119 -36L121 -36L121 -34L119 -34Z" fill="white"/>
<path d="M102 -53L102 -51L104 -51L104 -53L102 -53Z" fill="white"/>
<path d="M102 -68L102 -70L104 -70L104 -68L102 -68Z" fill="white"/>
<path d="M119 -53L119 -51L121 -51L121 -53L119 -53Z" fill="white"/>
<path d="M119 -68L119 -70L121 -70L121 -68L119 -68Z" fill="white"/>
<path d="M136 185L136 187L138 187L138 185L136 185Z" fill="white"/>
<path d="M136 168L136 170L138 170L138 168L136 168Z" fill="white"/>
<path d="M153 187L153 185L155 185L155 187L153 187Z" fill="white"/>
<path d="M153 168L153 170L155 170L155 168L153 168Z" fill="white"/>
<path d="M136 153L136 151L138 151L138 153L136 153Z" fill="white"/>
<path d="M136 134L136 136L138 136L138 134L136 134Z" fill="white"/>
<path d="M153 153L153 151L155 151L155 153L153 153Z" fill="white"/>
<path d="M153 134L153 136L155 136L155 134L153 134Z" fill="white"/>
<path d="M170 187L170 185L172 185L172 187L170 187Z" fill="white"/>
<path d="M170 168L170 170L172 170L172 168L170 168Z" fill="white"/>
<path d="M187 187L187 185L189 185L189 187L187 187Z" fill="white"/>
<path d="M187 168L187 170L189 170L189 168L187 168Z" fill="white"/>
<path d="M170 153L170 151L172 151L172 153L170 153Z" fill="white"/>
<path d="M170 134L170 136L172 136L172 134L170 134Z" fill="white"/>
<path d="M187 153L187 151L189 151L189 153L187 153Z" fill="white"/>
<path d="M187 134L187 136L189 136L189 134L187 134Z" fill="white"/>
<path d="M136 117L136 119L138 119L138 117L136 117Z" fill="white"/>
<path d="M136 100L136 102L138 102L138 100L136 100Z" fill="white"/>
<path d="M153 119L153 117L155 117L155 119L153 119Z" fill="white"/>
<path d="M153 100L153 102L155 102L155 100L153 100Z" fill="white"/>
<path d="M136 85L136 83L138 83L138 85L136 85Z" fill="white"/>
<path d="M136 66L136 68L138 68L138 66L136 66Z" fill="white"/>
<path d="M153 85L153 83L155 83L155 85L153 85Z" fill="white"/>
<path d="M153 66L153 68L155 68L155 66L153 66Z" fill="white"/>
<path d="M170 119L170 117L172 117L172 119L170 119Z" fill="white"/>
<path d="M170 100L170 102L172 102L172 100L170 100Z" fill="white"/>
<path d="M187 119L187 117L189 117L189 119L187 119Z" fill="white"/>
<path d="M187 100L187 102L189 102L189 100L187 100Z" fill="white"/>
<path d="M170 85L170 83L172 83L172 85L170 85Z" fill="white"/>
<path d="M170 66L170 68L172 68L172 66L170 66Z" fill="white"/>
<path d="M187 85L187 83L189 83L189 85L187 85Z" fill="white"/>
<path d="M187 66L187 68L189 68L189 66L187 66Z" fill="white"/>
<path d="M204 185L204 187L206 187L206 185L204 185Z" fill="white"/>
<path d="M204 168L204 170L206 170L206 168L204 168Z" fill="white"/>
<path d="M221 187L221 185L223 185L223 187L221 187Z" fill="white"/>
<path d="M221 168L221 170L223 170L223 168L221 168Z" fill="white"/>
<path d="M204 153L204 151L206 151L206 153L204 153Z" fill="white"/>
<path d="M204 134L204 136L206 136L206 134L204 134Z" fill="white"/>
<path d="M221 153L221 151L223 151L223 153L221 153Z" fill="white"/>
<path d="M221 134L221 136L223 136L223 134L221 134Z" fill="white"/>
<path d="M238 187L238 185L240 185L240 187L238 187Z" fill="white"/>
<path d="M238 168L238 170L240 170L240 168L238 168Z" fill="white"/>
<path d="M255 187L255 185L257 185L257 187L255 187Z" fill="white"/>
<path d="M255 168L255 170L257 170L257 168L255 168Z" fill="white"/>
<path d="M238 153L238 151L240 151L240 153L238 153Z" fill="white"/>
<path d="M238 134L238 136L240 136L240 134L238 134Z" fill="white"/>
<path d="M255 153L255 151L257 151L257 153L255 153Z" fill="white"/>
<path d="M255 134L255 136L257 136L257 134L255 134Z" fill="white"/>
<path d="M204 117L204 119L206 119L206 117L204 117Z" fill="white"/>
<path d="M204 100L204 102L206 102L206 100L204 100Z" fill="white"/>
<path d="M221 119L221 117L223 117L223 119L221 119Z" fill="white"/>
<path d="M221 100L221 102L223 102L223 100L221 100Z" fill="white"/>
<path d="M204 85L204 83L206 83L206 85L204 85Z" fill="white"/>
<path d="M204 66L204 68L206 68L206 66L204 66Z" fill="white"/>
<path d="M221 85L221 83L223 83L223 85L221 85Z" fill="white"/>
<path d="M221 66L221 68L223 68L223 66L221 66Z" fill="white"/>
<path d="M238 119L238 117L240 117L240 119L238 119Z" fill="white"/>
<path d="M238 100L238 102L240 102L240 100L238 100Z" fill="white"/>
<path d="M255 119L255 117L257 117L257 119L255 119Z" fill="white"/>
<path d="M255 100L255 102L257 102L257 100L255 100Z" fill="white"/>
<path d="M238 85L238 83L240 83L240 85L238 85Z" fill="white"/>
<path d="M238 66L238 68L240 68L240 66L238 66Z" fill="white"/>
<path d="M255 85L255 83L257 83L257 85L255 85Z" fill="white"/>
<path d="M255 66L255 68L257 68L257 66L255 66Z" fill="white"/>
<path d="M136 51L136 49L138 49L138 51L136 51Z" fill="white"/>
<path d="M136 34L136 32L138 32L138 34L136 34Z" fill="white"/>
<path d="M153 49L153 51L155 51L155 49L153 49Z" fill="white"/>
<path d="M153 34L153 32L155 32L155 34L153 34Z" fill="white"/>
<path d="M136 15L136 17L138 17L138 15L136 15Z" fill="white"/>
<path d="M136 -5.94475e-06L136 -2.00001L138 -2.00001L138 -6.03217e-06L136 -5.94475e-06Z" fill="white"/>
<path d="M153 15L153 17L155 17L155 15L153 15Z" fill="white"/>
<path d="M153 -6.68784e-06L153 -2.00001L155 -2.00001L155 -6.77527e-06L153 -6.68784e-06Z" fill="white"/>
<path d="M170 49L170 51L172 51L172 49L170 49Z" fill="white"/>
<path d="M170 34L170 32L172 32L172 34L170 34Z" fill="white"/>
<path d="M187 49L187 51L189 51L189 49L187 49Z" fill="white"/>
<path d="M187 34L187 32L189 32L189 34L187 34Z" fill="white"/>
<path d="M170 15L170 17L172 17L172 15L170 15Z" fill="white"/>
<path d="M170 -7.43094e-06L170 -2.00001L172 -2.00001L172 -7.51836e-06L170 -7.43094e-06Z" fill="white"/>
<path d="M187 15L187 17L189 17L189 15L187 15Z" fill="white"/>
<path d="M187 -8.17403e-06L187 -2.00001L189 -2.00001L189 -8.26145e-06L187 -8.17403e-06Z" fill="white"/>
<path d="M136 -17L136 -19L138 -19L138 -17L136 -17Z" fill="white"/>
<path d="M136 -34L136 -36L138 -36L138 -34L136 -34Z" fill="white"/>
<path d="M153 -19L153 -17L155 -17L155 -19L153 -19Z" fill="white"/>
<path d="M153 -34L153 -36L155 -36L155 -34L153 -34Z" fill="white"/>
<path d="M136 -53L136 -51L138 -51L138 -53L136 -53Z" fill="white"/>
<path d="M136 -68L136 -70L138 -70L138 -68L136 -68Z" fill="white"/>
<path d="M153 -53L153 -51L155 -51L155 -53L153 -53Z" fill="white"/>
<path d="M153 -68L153 -70L155 -70L155 -68L153 -68Z" fill="white"/>
<path d="M170 -19L170 -17L172 -17L172 -19L170 -19Z" fill="white"/>
<path d="M170 -34L170 -36L172 -36L172 -34L170 -34Z" fill="white"/>
<path d="M187 -19L187 -17L189 -17L189 -19L187 -19Z" fill="white"/>
<path d="M187 -34L187 -36L189 -36L189 -34L187 -34Z" fill="white"/>
<path d="M170 -53L170 -51L172 -51L172 -53L170 -53Z" fill="white"/>
<path d="M170 -68L170 -70L172 -70L172 -68L170 -68Z" fill="white"/>
<path d="M187 -53L187 -51L189 -51L189 -53L187 -53Z" fill="white"/>
<path d="M187 -68L187 -70L189 -70L189 -68L187 -68Z" fill="white"/>
<path d="M204 51L204 49L206 49L206 51L204 51Z" fill="white"/>
<path d="M204 34L204 32L206 32L206 34L204 34Z" fill="white"/>
<path d="M221 49L221 51L223 51L223 49L221 49Z" fill="white"/>
<path d="M221 34L221 32L223 32L223 34L221 34Z" fill="white"/>
<path d="M204 15L204 17L206 17L206 15L204 15Z" fill="white"/>
<path d="M204 -8.91712e-06L204 -2.00001L206 -2.00001L206 -9.00455e-06L204 -8.91712e-06Z" fill="white"/>
<path d="M221 15L221 17L223 17L223 15L221 15Z" fill="white"/>
<path d="M221 -9.66022e-06L221 -2.00001L223 -2.00001L223 -9.74764e-06L221 -9.66022e-06Z" fill="white"/>
<path d="M238 49L238 51L240 51L240 49L238 49Z" fill="white"/>
<path d="M238 34L238 32L240 32L240 34L238 34Z" fill="white"/>
<path d="M255 49L255 51L257 51L257 49L255 49Z" fill="white"/>
<path d="M255 34L255 32L257 32L257 34L255 34Z" fill="white"/>
<path d="M238 15L238 17L240 17L240 15L238 15Z" fill="white"/>
<path d="M238 -1.04033e-05L238 -2.00001L240 -2.00001L240 -1.04907e-05L238 -1.04033e-05Z" fill="white"/>
<path d="M255 15L255 17L257 17L257 15L255 15Z" fill="white"/>
<path d="M255 -1.11464e-05L255 -2.00001L257 -2.00001L257 -1.12338e-05L255 -1.11464e-05Z" fill="white"/>
<path d="M204 -17L204 -19L206 -19L206 -17L204 -17Z" fill="white"/>
<path d="M204 -34L204 -36L206 -36L206 -34L204 -34Z" fill="white"/>
<path d="M221 -19L221 -17L223 -17L223 -19L221 -19Z" fill="white"/>
<path d="M221 -34L221 -36L223 -36L223 -34L221 -34Z" fill="white"/>
<path d="M204 -53L204 -51L206 -51L206 -53L204 -53Z" fill="white"/>
<path d="M204 -68L204 -70L206 -70L206 -68L204 -68Z" fill="white"/>
<path d="M221 -53L221 -51L223 -51L223 -53L221 -53Z" fill="white"/>
<path d="M221 -68L221 -70L223 -70L223 -68L221 -68Z" fill="white"/>
<path d="M238 -19L238 -17L240 -17L240 -19L238 -19Z" fill="white"/>
<path d="M238 -34L238 -36L240 -36L240 -34L238 -34Z" fill="white"/>
<path d="M255 -19L255 -17L257 -17L257 -19L255 -19Z" fill="white"/>
<path d="M255 -34L255 -36L257 -36L257 -34L255 -34Z" fill="white"/>
<path d="M238 -53L238 -51L240 -51L240 -53L238 -53Z" fill="white"/>
<path d="M238 -68L238 -70L240 -70L240 -68L238 -68Z" fill="white"/>
<path d="M255 -53L255 -51L257 -51L257 -53L255 -53Z" fill="white"/>
<path d="M255 -68L255 -70L257 -70L257 -68L255 -68Z" fill="white"/>
<path d="M272 187L272 185L274 185L274 187L272 187Z" fill="white"/>
<path d="M272 170L272 168L274 168L274 170L272 170Z" fill="white"/>
<path d="M289 185L289 187L291 187L291 185L289 185Z" fill="white"/>
<path d="M289 170L289 168L291 168L291 170L289 170Z" fill="white"/>
<path d="M272 151L272 153L274 153L274 151L272 151Z" fill="white"/>
<path d="M272 136L272 134L274 134L274 136L272 136Z" fill="white"/>
<path d="M289 151L289 153L291 153L291 151L289 151Z" fill="white"/>
<path d="M289 136L289 134L291 134L291 136L289 136Z" fill="white"/>
<path d="M306 185L306 187L308 187L308 185L306 185Z" fill="white"/>
<path d="M306 170L306 168L308 168L308 170L306 170Z" fill="white"/>
<path d="M323 185L323 187L325 187L325 185L323 185Z" fill="white"/>
<path d="M323 170L323 168L325 168L325 170L323 170Z" fill="white"/>
<path d="M306 151L306 153L308 153L308 151L306 151Z" fill="white"/>
<path d="M306 136L306 134L308 134L308 136L306 136Z" fill="white"/>
<path d="M323 151L323 153L325 153L325 151L323 151Z" fill="white"/>
<path d="M323 136L323 134L325 134L325 136L323 136Z" fill="white"/>
<path d="M272 119L272 117L274 117L274 119L272 119Z" fill="white"/>
<path d="M272 102L272 100L274 100L274 102L272 102Z" fill="white"/>
<path d="M289 117L289 119L291 119L291 117L289 117Z" fill="white"/>
<path d="M289 102L289 100L291 100L291 102L289 102Z" fill="white"/>
<path d="M272 83L272 85L274 85L274 83L272 83Z" fill="white"/>
<path d="M272 68L272 66L274 66L274 68L272 68Z" fill="white"/>
<path d="M289 83L289 85L291 85L291 83L289 83Z" fill="white"/>
<path d="M289 68L289 66L291 66L291 68L289 68Z" fill="white"/>
<path d="M306 117L306 119L308 119L308 117L306 117Z" fill="white"/>
<path d="M306 102L306 100L308 100L308 102L306 102Z" fill="white"/>
<path d="M323 117L323 119L325 119L325 117L323 117Z" fill="white"/>
<path d="M323 102L323 100L325 100L325 102L323 102Z" fill="white"/>
<path d="M306 83L306 85L308 85L308 83L306 83Z" fill="white"/>
<path d="M306 68L306 66L308 66L308 68L306 68Z" fill="white"/>
<path d="M323 83L323 85L325 85L325 83L323 83Z" fill="white"/>
<path d="M323 68L323 66L325 66L325 68L323 68Z" fill="white"/>
<path d="M340 187L340 185L342 185L342 187L340 187Z" fill="white"/>
<path d="M340 170L340 168L342 168L342 170L340 170Z" fill="white"/>
<path d="M357 185L357 187L359 187L359 185L357 185Z" fill="white"/>
<path d="M357 170L357 168L359 168L359 170L357 170Z" fill="white"/>
<path d="M340 151L340 153L342 153L342 151L340 151Z" fill="white"/>
<path d="M340 136L340 134L342 134L342 136L340 136Z" fill="white"/>
<path d="M357 151L357 153L359 153L359 151L357 151Z" fill="white"/>
<path d="M357 136L357 134L359 134L359 136L357 136Z" fill="white"/>
<path d="M374 185L374 187L376 187L376 185L374 185Z" fill="white"/>
<path d="M374 170L374 168L376 168L376 170L374 170Z" fill="white"/>
<path d="M391 185L391 187L393 187L393 185L391 185Z" fill="white"/>
<path d="M391 170L391 168L393 168L393 170L391 170Z" fill="white"/>
<path d="M374 151L374 153L376 153L376 151L374 151Z" fill="white"/>
<path d="M374 136L374 134L376 134L376 136L374 136Z" fill="white"/>
<path d="M391 151L391 153L393 153L393 151L391 151Z" fill="white"/>
<path d="M391 136L391 134L393 134L393 136L391 136Z" fill="white"/>
<path d="M340 119L340 117L342 117L342 119L340 119Z" fill="white"/>
<path d="M340 102L340 100L342 100L342 102L340 102Z" fill="white"/>
<path d="M357 117L357 119L359 119L359 117L357 117Z" fill="white"/>
<path d="M357 102L357 100L359 100L359 102L357 102Z" fill="white"/>
<path d="M340 83L340 85L342 85L342 83L340 83Z" fill="white"/>
<path d="M340 68L340 66L342 66L342 68L340 68Z" fill="white"/>
<path d="M357 83L357 85L359 85L359 83L357 83Z" fill="white"/>
<path d="M357 68L357 66L359 66L359 68L357 68Z" fill="white"/>
<path d="M374 117L374 119L376 119L376 117L374 117Z" fill="white"/>
<path d="M374 102L374 100L376 100L376 102L374 102Z" fill="white"/>
<path d="M391 117L391 119L393 119L393 117L391 117Z" fill="white"/>
<path d="M391 102L391 100L393 100L393 102L391 102Z" fill="white"/>
<path d="M374 83L374 85L376 85L376 83L374 83Z" fill="white"/>
<path d="M374 68L374 66L376 66L376 68L374 68Z" fill="white"/>
<path d="M391 83L391 85L393 85L393 83L391 83Z" fill="white"/>
<path d="M391 68L391 66L393 66L393 68L391 68Z" fill="white"/>
<path d="M272 51L272 49L274 49L274 51L272 51Z" fill="white"/>
<path d="M272 34L272 32L274 32L274 34L272 34Z" fill="white"/>
<path d="M289 49L289 51L291 51L291 49L289 49Z" fill="white"/>
<path d="M289 34L289 32L291 32L291 34L289 34Z" fill="white"/>
<path d="M272 15L272 17L274 17L274 15L272 15Z" fill="white"/>
<path d="M272 -1.18895e-05L272 -2.00001L274 -2.00001L274 -1.19769e-05L272 -1.18895e-05Z" fill="white"/>
<path d="M289 15L289 17L291 17L291 15L289 15Z" fill="white"/>
<path d="M289 -1.26326e-05L289 -2.00001L291 -2.00001L291 -1.272e-05L289 -1.26326e-05Z" fill="white"/>
<path d="M306 49L306 51L308 51L308 49L306 49Z" fill="white"/>
<path d="M306 34L306 32L308 32L308 34L306 34Z" fill="white"/>
<path d="M323 49L323 51L325 51L325 49L323 49Z" fill="white"/>
<path d="M323 34L323 32L325 32L325 34L323 34Z" fill="white"/>
<path d="M306 15L306 17L308 17L308 15L306 15Z" fill="white"/>
<path d="M306 -1.33757e-05L306 -2.00001L308 -2.00001L308 -1.34631e-05L306 -1.33757e-05Z" fill="white"/>
<path d="M323 15L323 17L325 17L325 15L323 15Z" fill="white"/>
<path d="M323 -1.41188e-05L323 -2.00001L325 -2.00001L325 -1.42062e-05L323 -1.41188e-05Z" fill="white"/>
<path d="M272 -17L272 -19L274 -19L274 -17L272 -17Z" fill="white"/>
<path d="M272 -34L272 -36L274 -36L274 -34L272 -34Z" fill="white"/>
<path d="M289 -19L289 -17L291 -17L291 -19L289 -19Z" fill="white"/>
<path d="M289 -34L289 -36L291 -36L291 -34L289 -34Z" fill="white"/>
<path d="M272 -53L272 -51L274 -51L274 -53L272 -53Z" fill="white"/>
<path d="M272 -68L272 -70L274 -70L274 -68L272 -68Z" fill="white"/>
<path d="M289 -53L289 -51L291 -51L291 -53L289 -53Z" fill="white"/>
<path d="M289 -68L289 -70L291 -70L291 -68L289 -68Z" fill="white"/>
<path d="M306 -19L306 -17L308 -17L308 -19L306 -19Z" fill="white"/>
<path d="M306 -34L306 -36L308 -36L308 -34L306 -34Z" fill="white"/>
<path d="M323 -19L323 -17L325 -17L325 -19L323 -19Z" fill="white"/>
<path d="M323 -34L323 -36L325 -36L325 -34L323 -34Z" fill="white"/>
<path d="M306 -53L306 -51L308 -51L308 -53L306 -53Z" fill="white"/>
<path d="M306 -68L306 -70L308 -70L308 -68L306 -68Z" fill="white"/>
<path d="M323 -53L323 -51L325 -51L325 -53L323 -53Z" fill="white"/>
<path d="M323 -68L323 -70L325 -70L325 -68L323 -68Z" fill="white"/>
<path d="M340 51L340 49L342 49L342 51L340 51Z" fill="white"/>
<path d="M340 34L340 32L342 32L342 34L340 34Z" fill="white"/>
<path d="M357 49L357 51L359 51L359 49L357 49Z" fill="white"/>
<path d="M357 34L357 32L359 32L359 34L357 34Z" fill="white"/>
<path d="M340 15L340 17L342 17L342 15L340 15Z" fill="white"/>
<path d="M340 -1.48619e-05L340 -2.00001L342 -2.00001L342 -1.49493e-05L340 -1.48619e-05Z" fill="white"/>
<path d="M357 15L357 17L359 17L359 15L357 15Z" fill="white"/>
<path d="M357 -1.5605e-05L357 -2.00002L359 -2.00002L359 -1.56924e-05L357 -1.5605e-05Z" fill="white"/>
<path d="M374 49L374 51L376 51L376 49L374 49Z" fill="white"/>
<path d="M374 34L374 32L376 32L376 34L374 34Z" fill="white"/>
<path d="M391 49L391 51L393 51L393 49L391 49Z" fill="white"/>
<path d="M391 34L391 32L393 32L393 34L391 34Z" fill="white"/>
<path d="M374 15L374 17L376 17L376 15L374 15Z" fill="white"/>
<path d="M374 -1.63481e-05L374 -2.00002L376 -2.00002L376 -1.64355e-05L374 -1.63481e-05Z" fill="white"/>
<path d="M391 15L391 17L393 17L393 15L391 15Z" fill="white"/>
<path d="M391 -1.70912e-05L391 -2.00002L393 -2.00002L393 -1.71786e-05L391 -1.70912e-05Z" fill="white"/>
<path d="M340 -17L340 -19L342 -19L342 -17L340 -17Z" fill="white"/>
<path d="M340 -34L340 -36L342 -36L342 -34L340 -34Z" fill="white"/>
<path d="M357 -19L357 -17L359 -17L359 -19L357 -19Z" fill="white"/>
<path d="M357 -34L357 -36L359 -36L359 -34L357 -34Z" fill="white"/>
<path d="M340 -53L340 -51L342 -51L342 -53L340 -53Z" fill="white"/>
<path d="M340 -68L340 -70L342 -70L342 -68L340 -68Z" fill="white"/>
<path d="M357 -53L357 -51L359 -51L359 -53L357 -53Z" fill="white"/>
<path d="M357 -68L357 -70L359 -70L359 -68L357 -68Z" fill="white"/>
<path d="M374 -19L374 -17L376 -17L376 -19L374 -19Z" fill="white"/>
<path d="M374 -34L374 -36L376 -36L376 -34L374 -34Z" fill="white"/>
<path d="M391 -19L391 -17L393 -17L393 -19L391 -19Z" fill="white"/>
<path d="M391 -34L391 -36L393 -36L393 -34L391 -34Z" fill="white"/>
<path d="M374 -53L374 -51L376 -51L376 -53L374 -53Z" fill="white"/>
<path d="M374 -68L374 -70L376 -70L376 -68L374 -68Z" fill="white"/>
<path d="M391 -53L391 -51L393 -51L393 -53L391 -53Z" fill="white"/>
<path d="M391 -68L391 -70L393 -70L393 -68L391 -68Z" fill="white"/>
<path d="M408 185L408 187L410 187L410 185L408 185Z" fill="white"/>
<path d="M408 168L408 170L410 170L410 168L408 168Z" fill="white"/>
<path d="M425 187L425 185L427 185L427 187L425 187Z" fill="white"/>
<path d="M425 168L425 170L427 170L427 168L425 168Z" fill="white"/>
<path d="M408 153L408 151L410 151L410 153L408 153Z" fill="white"/>
<path d="M408 134L408 136L410 136L410 134L408 134Z" fill="white"/>
<path d="M425 153L425 151L427 151L427 153L425 153Z" fill="white"/>
<path d="M425 134L425 136L427 136L427 134L425 134Z" fill="white"/>
<path d="M442 187L442 185L444 185L444 187L442 187Z" fill="white"/>
<path d="M442 168L442 170L444 170L444 168L442 168Z" fill="white"/>
<path d="M459 187L459 185L461 185L461 187L459 187Z" fill="white"/>
<path d="M459 168L459 170L461 170L461 168L459 168Z" fill="white"/>
<path d="M442 153L442 151L444 151L444 153L442 153Z" fill="white"/>
<path d="M442 134L442 136L444 136L444 134L442 134Z" fill="white"/>
<path d="M459 153L459 151L461 151L461 153L459 153Z" fill="white"/>
<path d="M459 134L459 136L461 136L461 134L459 134Z" fill="white"/>
<path d="M408 117L408 119L410 119L410 117L408 117Z" fill="white"/>
<path d="M408 100L408 102L410 102L410 100L408 100Z" fill="white"/>
<path d="M425 119L425 117L427 117L427 119L425 119Z" fill="white"/>
<path d="M425 100L425 102L427 102L427 100L425 100Z" fill="white"/>
<path d="M408 85L408 83L410 83L410 85L408 85Z" fill="white"/>
<path d="M408 66L408 68L410 68L410 66L408 66Z" fill="white"/>
<path d="M425 85L425 83L427 83L427 85L425 85Z" fill="white"/>
<path d="M425 66L425 68L427 68L427 66L425 66Z" fill="white"/>
<path d="M442 119L442 117L444 117L444 119L442 119Z" fill="white"/>
<path d="M442 100L442 102L444 102L444 100L442 100Z" fill="white"/>
<path d="M459 119L459 117L461 117L461 119L459 119Z" fill="white"/>
<path d="M459 100L459 102L461 102L461 100L459 100Z" fill="white"/>
<path d="M442 85L442 83L444 83L444 85L442 85Z" fill="white"/>
<path d="M442 66L442 68L444 68L444 66L442 66Z" fill="white"/>
<path d="M459 85L459 83L461 83L461 85L459 85Z" fill="white"/>
<path d="M459 66L459 68L461 68L461 66L459 66Z" fill="white"/>
<path d="M476 185L476 187L478 187L478 185L476 185Z" fill="white"/>
<path d="M476 168L476 170L478 170L478 168L476 168Z" fill="white"/>
<path d="M493 187L493 185L495 185L495 187L493 187Z" fill="white"/>
<path d="M493 168L493 170L495 170L495 168L493 168Z" fill="white"/>
<path d="M476 153L476 151L478 151L478 153L476 153Z" fill="white"/>
<path d="M476 134L476 136L478 136L478 134L476 134Z" fill="white"/>
<path d="M493 153L493 151L495 151L495 153L493 153Z" fill="white"/>
<path d="M493 134L493 136L495 136L495 134L493 134Z" fill="white"/>
<path d="M510 187L510 185L512 185L512 187L510 187Z" fill="white"/>
<path d="M510 168L510 170L512 170L512 168L510 168Z" fill="white"/>
<path d="M527 187L527 185L529 185L529 187L527 187Z" fill="white"/>
<path d="M527 168L527 170L529 170L529 168L527 168Z" fill="white"/>
<path d="M510 153L510 151L512 151L512 153L510 153Z" fill="white"/>
<path d="M510 134L510 136L512 136L512 134L510 134Z" fill="white"/>
<path d="M527 153L527 151L529 151L529 153L527 153Z" fill="white"/>
<path d="M527 134L527 136L529 136L529 134L527 134Z" fill="white"/>
<path d="M476 117L476 119L478 119L478 117L476 117Z" fill="white"/>
<path d="M476 100L476 102L478 102L478 100L476 100Z" fill="white"/>
<path d="M493 119L493 117L495 117L495 119L493 119Z" fill="white"/>
<path d="M493 100L493 102L495 102L495 100L493 100Z" fill="white"/>
<path d="M476 85L476 83L478 83L478 85L476 85Z" fill="white"/>
<path d="M476 66L476 68L478 68L478 66L476 66Z" fill="white"/>
<path d="M493 85L493 83L495 83L495 85L493 85Z" fill="white"/>
<path d="M493 66L493 68L495 68L495 66L493 66Z" fill="white"/>
<path d="M510 119L510 117L512 117L512 119L510 119Z" fill="white"/>
<path d="M510 100L510 102L512 102L512 100L510 100Z" fill="white"/>
<path d="M527 119L527 117L529 117L529 119L527 119Z" fill="white"/>
<path d="M527 100L527 102L529 102L529 100L527 100Z" fill="white"/>
<path d="M510 85L510 83L512 83L512 85L510 85Z" fill="white"/>
<path d="M510 66L510 68L512 68L512 66L510 66Z" fill="white"/>
<path d="M527 85L527 83L529 83L529 85L527 85Z" fill="white"/>
<path d="M527 66L527 68L529 68L529 66L527 66Z" fill="white"/>
<path d="M408 51L408 49L410 49L410 51L408 51Z" fill="white"/>
<path d="M408 34L408 32L410 32L410 34L408 34Z" fill="white"/>
<path d="M425 49L425 51L427 51L427 49L425 49Z" fill="white"/>
<path d="M425 34L425 32L427 32L427 34L425 34Z" fill="white"/>
<path d="M408 15L408 17L410 17L410 15L408 15Z" fill="white"/>
<path d="M408 -1.78342e-05L408 -2.00002L410 -2.00002L410 -1.79217e-05L408 -1.78342e-05Z" fill="white"/>
<path d="M425 15L425 17L427 17L427 15L425 15Z" fill="white"/>
<path d="M425 -1.85773e-05L425 -2.00002L427 -2.00002L427 -1.86648e-05L425 -1.85773e-05Z" fill="white"/>
<path d="M442 49L442 51L444 51L444 49L442 49Z" fill="white"/>
<path d="M442 34L442 32L444 32L444 34L442 34Z" fill="white"/>
<path d="M459 49L459 51L461 51L461 49L459 49Z" fill="white"/>
<path d="M459 34L459 32L461 32L461 34L459 34Z" fill="white"/>
<path d="M442 15L442 17L444 17L444 15L442 15Z" fill="white"/>
<path d="M442 -1.93204e-05L442 -2.00002L444 -2.00002L444 -1.94079e-05L442 -1.93204e-05Z" fill="white"/>
<path d="M459 15L459 17L461 17L461 15L459 15Z" fill="white"/>
<path d="M459 -2.00635e-05L459 -2.00002L461 -2.00002L461 -2.0151e-05L459 -2.00635e-05Z" fill="white"/>
<path d="M408 -17L408 -19L410 -19L410 -17L408 -17Z" fill="white"/>
<path d="M408 -34L408 -36L410 -36L410 -34L408 -34Z" fill="white"/>
<path d="M425 -19L425 -17L427 -17L427 -19L425 -19Z" fill="white"/>
<path d="M425 -34L425 -36L427 -36L427 -34L425 -34Z" fill="white"/>
<path d="M408 -53L408 -51L410 -51L410 -53L408 -53Z" fill="white"/>
<path d="M408 -68L408 -70L410 -70L410 -68L408 -68Z" fill="white"/>
<path d="M425 -53L425 -51L427 -51L427 -53L425 -53Z" fill="white"/>
<path d="M425 -68L425 -70L427 -70L427 -68L425 -68Z" fill="white"/>
<path d="M442 -19L442 -17L444 -17L444 -19L442 -19Z" fill="white"/>
<path d="M442 -34L442 -36L444 -36L444 -34L442 -34Z" fill="white"/>
<path d="M459 -19L459 -17L461 -17L461 -19L459 -19Z" fill="white"/>
<path d="M459 -34L459 -36L461 -36L461 -34L459 -34Z" fill="white"/>
<path d="M442 -53L442 -51L444 -51L444 -53L442 -53Z" fill="white"/>
<path d="M442 -68L442 -70L444 -70L444 -68L442 -68Z" fill="white"/>
<path d="M459 -53L459 -51L461 -51L461 -53L459 -53Z" fill="white"/>
<path d="M459 -68L459 -70L461 -70L461 -68L459 -68Z" fill="white"/>
<path d="M476 51L476 49L478 49L478 51L476 51Z" fill="white"/>
<path d="M476 34L476 32L478 32L478 34L476 34Z" fill="white"/>
<path d="M493 49L493 51L495 51L495 49L493 49Z" fill="white"/>
<path d="M493 34L493 32L495 32L495 34L493 34Z" fill="white"/>
<path d="M476 15L476 17L478 17L478 15L476 15Z" fill="white"/>
<path d="M476 -2.08066e-05L476 -2.00002L478 -2.00002L478 -2.0894e-05L476 -2.08066e-05Z" fill="white"/>
<path d="M493 15L493 17L495 17L495 15L493 15Z" fill="white"/>
<path d="M493 -2.15497e-05L493 -2.00002L495 -2.00002L495 -2.16371e-05L493 -2.15497e-05Z" fill="white"/>
<path d="M510 49L510 51L512 51L512 49L510 49Z" fill="white"/>
<path d="M510 34L510 32L512 32L512 34L510 34Z" fill="white"/>
<path d="M527 49L527 51L529 51L529 49L527 49Z" fill="white"/>
<path d="M527 34L527 32L529 32L529 34L527 34Z" fill="white"/>
<path d="M510 15L510 17L512 17L512 15L510 15Z" fill="white"/>
<path d="M510 -2.22928e-05L510 -2.00002L512 -2.00002L512 -2.23802e-05L510 -2.22928e-05Z" fill="white"/>
<path d="M527 15L527 17L529 17L529 15L527 15Z" fill="white"/>
<path d="M527 -2.30359e-05L527 -2.00002L529 -2.00002L529 -2.31233e-05L527 -2.30359e-05Z" fill="white"/>
<path d="M476 -17L476 -19L478 -19L478 -17L476 -17Z" fill="white"/>
<path d="M476 -34L476 -36L478 -36L478 -34L476 -34Z" fill="white"/>
<path d="M493 -19L493 -17L495 -17L495 -19L493 -19Z" fill="white"/>
<path d="M493 -34L493 -36L495 -36L495 -34L493 -34Z" fill="white"/>
<path d="M476 -53L476 -51L478 -51L478 -53L476 -53Z" fill="white"/>
<path d="M476 -68L476 -70L478 -70L478 -68L476 -68Z" fill="white"/>
<path d="M493 -53L493 -51L495 -51L495 -53L493 -53Z" fill="white"/>
<path d="M493 -68L493 -70L495 -70L495 -68L493 -68Z" fill="white"/>
<path d="M510 -19L510 -17L512 -17L512 -19L510 -19Z" fill="white"/>
<path d="M510 -34L510 -36L512 -36L512 -34L510 -34Z" fill="white"/>
<path d="M527 -19L527 -17L529 -17L529 -19L527 -19Z" fill="white"/>
<path d="M527 -34L527 -36L529 -36L529 -34L527 -34Z" fill="white"/>
<path d="M510 -53L510 -51L512 -51L512 -53L510 -53Z" fill="white"/>
<path d="M510 -68L510 -70L512 -70L512 -68L510 -68Z" fill="white"/>
<path d="M527 -53L527 -51L529 -51L529 -53L527 -53Z" fill="white"/>
<path d="M527 -68L527 -70L529 -70L529 -68L527 -68Z" fill="white"/>
</g>
</svg>
