<svg width="776" height="180" viewBox="0 0 776 180" fill="none" xmlns="http://www.w3.org/2000/svg">
<path opacity="0.07" d="M0.600001 176V7.99999H56.76V70.88L104.52 7.99999H169.8L111.24 80.96L171 176H104.04L71.16 122.72L56.76 140.24V176H0.600001ZM227.983 179.12C185.023 179.12 155.983 152 155.983 111.2V110.72C155.983 71.6 184.063 41.84 223.423 41.84C269.983 41.84 291.583 74.24 291.583 114.08C291.583 116.96 291.583 120.32 291.343 123.2H207.103C210.943 134.72 220.063 140.72 231.823 140.72C241.663 140.72 249.823 136.16 258.463 127.28L287.743 150.56C274.783 167.36 256.303 179.12 227.983 179.12ZM206.383 99.2H241.903C240.703 86.72 233.263 79.52 223.663 79.52C214.543 79.52 208.063 87.2 206.383 99.2ZM298.221 35.6V0.799995H354.621V35.6H298.221ZM299.181 176V44.96H353.661V176H299.181ZM361.059 176V141.92L414.339 87.68H363.219V44.96H489.699V79.04L436.179 133.28H489.699V176H361.059ZM560.458 179.12C517.498 179.12 488.458 152 488.458 111.2V110.72C488.458 71.6 516.538 41.84 555.898 41.84C602.458 41.84 624.058 74.24 624.058 114.08C624.058 116.96 624.058 120.32 623.818 123.2H539.578C543.418 134.72 552.538 140.72 564.298 140.72C574.138 140.72 582.298 136.16 590.938 127.28L620.218 150.56C607.258 167.36 588.778 179.12 560.458 179.12ZM538.858 99.2H574.378C573.178 86.72 565.738 79.52 556.138 79.52C547.018 79.52 540.538 87.2 538.858 99.2ZM631.176 176V44.96H685.656V71.36C693.096 53.6 705.096 42.08 726.696 43.04V100.88H720.936C697.896 100.88 685.656 113.6 685.656 142.64V176H631.176ZM719.372 176V120.8H775.052V176H719.372Z" fill="white"/>
</svg>
