<svg width="808" height="641" viewBox="0 0 808 641" fill="none" xmlns="http://www.w3.org/2000/svg">
<rect width="807.738" height="641" fill="#2D2DC3"/>
<g clip-path="url(#clip0_2_737)">
<g opacity="0.5">
<path d="M660 225.155C660 219.039 660 212.922 659.969 206.812C659.938 201.66 659.876 196.508 659.739 191.362C659.434 180.143 658.774 168.831 656.783 157.737C654.761 146.475 651.457 135.99 646.243 125.754C641.128 115.705 634.439 106.503 626.468 98.5319C618.491 90.5549 609.295 83.8722 599.24 78.7513C589.01 73.5432 578.532 70.2392 567.276 68.2169C556.181 66.2196 544.857 65.56 533.638 65.2551C528.486 65.1182 523.34 65.056 518.188 65.0249C512.072 64.9876 505.955 64.9938 499.845 64.9938H308.161C302.045 64.9938 295.928 64.9938 289.818 65.0249C284.666 65.056 279.514 65.1182 274.368 65.2551C263.149 65.56 251.825 66.2196 240.731 68.2169C229.474 70.2392 218.996 73.5432 208.767 78.7513C198.712 83.866 189.515 90.5549 181.538 98.5319C173.561 106.509 166.878 115.705 161.757 125.754C156.549 135.99 153.245 146.468 151.223 157.737C149.232 168.831 148.566 180.143 148.268 191.362C148.131 196.514 148.068 201.66 148.037 206.812C148 212.928 148 219.045 148 225.155V416.832C148 422.949 148 429.065 148.037 435.176C148.068 440.328 148.131 445.474 148.268 450.626C148.572 461.844 149.232 473.157 151.223 484.251C153.245 495.513 156.549 505.998 161.757 516.233C166.872 526.282 173.561 535.485 181.538 543.456C189.515 551.433 198.712 558.115 208.767 563.236C218.996 568.444 229.474 571.748 240.731 573.771C251.825 575.768 263.143 576.428 274.368 576.733C279.52 576.869 284.666 576.932 289.818 576.963C295.935 577 302.051 576.994 308.161 576.994H499.839C505.955 576.994 512.072 576.994 518.182 576.963C523.334 576.932 528.48 576.869 533.632 576.733C544.851 576.428 556.169 575.768 567.269 573.771C578.526 571.748 589.004 568.444 599.233 563.236C609.288 558.122 618.485 551.433 626.462 543.456C634.439 535.479 641.122 526.282 646.236 516.233C651.444 505.998 654.748 495.519 656.777 484.251C658.768 473.157 659.434 461.844 659.732 450.626C659.869 445.474 659.932 440.328 659.963 435.176C660 429.059 659.994 422.943 659.994 416.832V225.155H660Z" stroke="white" stroke-miterlimit="10"/>
<path d="M308 64.9938V576.994" stroke="white" stroke-miterlimit="10"/>
<path d="M499.471 64.9938V576.994" stroke="white" stroke-miterlimit="10"/>
<path d="M660 224.993H148" stroke="white" stroke-miterlimit="10"/>
<path d="M660 416.459H148" stroke="white" stroke-miterlimit="10"/>
<path d="M660 320.991H148" stroke="white" stroke-miterlimit="10"/>
<path d="M403.468 576.994V64.9938" stroke="white" stroke-miterlimit="10"/>
<path d="M626.406 576.994V64.9938" stroke="white" stroke-miterlimit="10"/>
<path d="M181.065 576.994V64.9938" stroke="white" stroke-miterlimit="10"/>
<path d="M148 543.394H660" stroke="white" stroke-miterlimit="10"/>
<path d="M148 98.059H660" stroke="white" stroke-miterlimit="10"/>
<path d="M404.047 416.932C457.006 416.932 499.938 374 499.938 321.041C499.938 268.081 457.006 225.149 404.047 225.149C351.087 225.149 308.155 268.081 308.155 321.041C308.155 374 351.087 416.932 404.047 416.932Z" stroke="white" stroke-miterlimit="10"/>
<path d="M148 64.9937L660 576.994" stroke="white" stroke-miterlimit="10"/>
<path d="M148 576.994L660 64.9937" stroke="white" stroke-miterlimit="10"/>
<path d="M539.22 332.222C545.398 257.565 489.884 192.037 415.228 185.86C340.571 179.682 275.043 235.196 268.866 309.852C262.688 384.509 318.202 450.037 392.858 456.215C467.515 462.392 533.043 406.878 539.22 332.222Z" stroke="white" stroke-miterlimit="10"/>
<path d="M404.047 543.443C526.876 543.443 626.449 443.87 626.449 321.041C626.449 198.211 526.876 98.6377 404.047 98.6377C281.217 98.6377 181.644 198.211 181.644 321.041C181.644 443.87 281.217 543.443 404.047 543.443Z" stroke="white" stroke-miterlimit="10"/>
</g>
<path d="M366.048 193.579V446.133C366.048 475.173 342.507 498.34 313.465 498.34C284.428 498.34 260.886 475.175 260.886 446.133V193.579C260.886 164.54 284.427 141 313.465 141C342.507 141.002 366.048 164.54 366.048 193.579Z" fill="white"/>
<path d="M544.628 446.139C544.628 475.177 521.089 498.718 492.049 498.718C463.009 498.718 439.47 475.179 439.47 446.139C439.47 417.098 463.007 393.563 492.049 393.563C521.089 393.563 544.628 417.097 544.628 446.139Z" fill="white"/>
<path d="M529.227 230.371C508.695 209.839 475.405 209.839 454.869 230.371L366.048 319.2L276.289 408.957C275.024 410.216 273.857 411.515 272.776 412.842C272.681 412.957 272.594 413.075 272.502 413.187C271.685 414.204 270.931 415.243 270.216 416.294C256.052 436.782 258.046 465.076 276.289 483.319C294.528 501.557 322.822 503.552 343.31 489.384C344.359 488.669 345.398 487.915 346.412 487.102C346.529 487.008 346.648 486.921 346.762 486.825C348.093 485.745 349.386 484.576 350.647 483.319L366.048 467.922V467.918L529.226 304.733C549.763 284.201 549.763 250.907 529.227 230.371Z" fill="white"/>
</g>
<defs>
<clipPath id="clip0_2_737">
<rect width="512" height="512" fill="white" transform="translate(148 65)"/>
</clipPath>
</defs>
</svg>
