<svg width="500" height="500" viewBox="0 0 500 500" fill="none" xmlns="http://www.w3.org/2000/svg">
<rect width="500" height="500" rx="78" fill="black"/>
<path d="M220.064 100.487V304.775C220.064 328.265 201.022 347.004 177.53 347.004C154.043 347.004 135 328.267 135 304.775V100.487C135 76.9982 154.041 57.9568 177.53 57.9568C201.022 57.9582 220.064 76.9982 220.064 100.487Z" fill="white"/>
<path d="M364.515 304.779C364.515 328.268 345.475 347.309 321.984 347.309C298.494 347.309 279.454 328.269 279.454 304.779C279.454 281.289 298.493 262.252 321.984 262.252C345.475 262.252 364.515 281.287 364.515 304.779Z" fill="white"/>
<path d="M352.057 130.248C335.449 113.639 308.521 113.639 291.91 130.248L220.064 202.1L147.459 274.703C146.436 275.722 145.492 276.772 144.617 277.846C144.541 277.939 144.47 278.034 144.396 278.125C143.735 278.948 143.125 279.788 142.547 280.638C131.089 297.211 132.702 320.097 147.459 334.854C162.213 349.606 185.099 351.22 201.671 339.76C202.52 339.182 203.36 338.571 204.18 337.914C204.275 337.838 204.372 337.767 204.464 337.689C205.54 336.816 206.586 335.871 207.606 334.854L220.064 322.399V322.396L352.056 190.398C368.669 173.79 368.669 146.859 352.057 130.248Z" fill="white"/>
<g clip-path="url(#clip0_1_1509)">
<path d="M179.924 399.928L161.813 418.188L181.662 438.12H164.784L149.571 422.844V438.12H136.387V374.031H149.571V413.241L162.828 399.928H179.924Z" fill="white"/>
<path d="M215.851 420.807H188.251C188.251 423.535 189.121 425.535 190.859 426.845C192.598 428.118 194.481 428.736 196.51 428.736C198.629 428.736 200.295 428.445 201.508 427.863C202.758 427.281 204.189 426.172 205.782 424.517L215.272 429.245C211.306 435.902 204.714 439.212 195.496 439.212C189.791 439.212 184.883 437.248 180.79 433.319C176.679 429.391 174.633 424.644 174.633 419.061C174.633 413.496 176.679 408.713 180.79 404.73C184.883 400.765 189.791 398.765 195.496 398.765C201.526 398.765 206.434 400.547 210.201 404.075C214.004 407.567 215.924 412.568 215.924 419.061C215.924 419.934 215.888 420.516 215.851 420.807ZM188.614 413.532H203.102C202.812 411.55 202.015 410.022 200.712 408.949C199.444 407.894 197.832 407.349 195.858 407.349C193.685 407.349 191.946 407.931 190.642 409.095C189.374 410.222 188.704 411.695 188.614 413.532Z" fill="white"/>
<path d="M216.354 378.614C217.894 377.068 219.723 376.286 221.86 376.286C223.979 376.286 225.79 377.068 227.293 378.614C228.832 380.178 229.611 382.015 229.611 384.143C229.611 386.289 228.832 388.125 227.293 389.671C225.79 391.181 223.979 391.926 221.86 391.926C219.723 391.926 217.894 391.181 216.354 389.671C214.797 388.125 214.036 386.289 214.036 384.143C214.036 382.015 214.797 380.178 216.354 378.614ZM215.05 399.929V438.121H228.235V399.929H215.05Z" fill="white"/>
<path d="M267.27 399.929L248.436 428.082H265.822V438.121H226.414L245.249 409.968H229.529V399.929H267.27Z" fill="white"/>
<path d="M303.633 420.807H276.033C276.033 423.535 276.902 425.535 278.641 426.845C280.38 428.118 282.263 428.736 284.291 428.736C286.41 428.736 288.076 428.445 289.29 427.863C290.539 427.281 291.97 426.172 293.564 424.517L303.053 429.245C299.087 435.902 292.495 439.212 283.277 439.212C277.572 439.212 272.664 437.248 268.572 433.319C264.461 429.391 262.414 424.644 262.414 419.061C262.414 413.496 264.461 408.713 268.572 404.73C272.664 400.765 277.572 398.765 283.277 398.765C289.308 398.765 294.216 400.547 297.983 404.075C301.786 407.567 303.705 412.568 303.705 419.061C303.705 419.934 303.669 420.516 303.633 420.807ZM276.395 413.532H290.883C290.594 411.55 289.797 410.022 288.493 408.949C287.225 407.894 285.613 407.349 283.639 407.349C281.466 407.349 279.728 407.931 278.424 409.095C277.156 410.222 276.486 411.695 276.395 413.532Z" fill="white"/>
<path d="M302.832 438.121V399.929H316.016V405.385H316.161C316.252 405.203 316.396 404.948 316.596 404.657C316.831 404.366 317.32 403.857 318.045 403.129C318.805 402.366 319.602 401.675 320.435 401.093C321.304 400.511 322.391 399.983 323.695 399.492C325.035 399.019 326.411 398.765 327.824 398.765C329.218 398.765 330.613 398.983 332.026 399.419C333.42 399.819 334.434 400.201 335.068 400.583L336.082 401.165L330.577 412.368C328.983 410.968 326.701 410.259 323.767 410.259C322.174 410.259 320.797 410.622 319.638 411.35C318.515 412.041 317.718 412.877 317.248 413.896C316.813 414.878 316.487 415.696 316.306 416.369C316.107 417.06 316.016 417.606 316.016 418.043V438.121H302.832Z" fill="white"/>
<path d="M354.53 422.189C356.884 422.189 358.895 423.026 360.543 424.662C362.227 426.317 363.078 428.354 363.078 430.773C363.078 433.101 362.227 435.102 360.543 436.739C358.895 438.375 356.884 439.212 354.53 439.212C352.212 439.212 350.202 438.375 348.518 436.739C346.869 435.102 346.055 433.101 346.055 430.773C346.055 428.354 346.869 426.317 348.518 424.662C350.202 423.026 352.212 422.189 354.53 422.189Z" fill="white"/>
</g>
<defs>
<clipPath id="clip0_1_1509">
<rect width="229.516" height="69.8368" fill="white" transform="translate(135 371.31)"/>
</clipPath>
</defs>
</svg>
