<svg width="175" height="80" viewBox="0 0 175 80" fill="none" xmlns="http://www.w3.org/2000/svg">
<path d="M29.4135 22.016V57.9833C29.4135 62.119 26.061 65.4183 21.925 65.4183C17.7898 65.4183 14.4371 62.1193 14.4371 57.9833V22.016C14.4371 17.8805 17.7895 14.528 21.925 14.528C26.061 14.5282 29.4135 17.8805 29.4135 22.016Z" fill="white"/>
<path d="M54.8459 57.9841C54.8459 62.1196 51.4937 65.4721 47.358 65.4721C43.2222 65.4721 39.87 62.1198 39.87 57.9841C39.87 53.8483 43.222 50.4966 47.358 50.4966C51.4937 50.4966 54.8459 53.8481 54.8459 57.9841Z" fill="white"/>
<path d="M52.6527 27.2557C49.7285 24.3316 44.9876 24.3316 42.063 27.2557L29.4136 39.9062L16.6306 52.6888C16.4505 52.8682 16.2843 53.0531 16.1303 53.2421C16.1169 53.2586 16.1045 53.2753 16.0913 53.2912C15.975 53.4361 15.8676 53.5841 15.7658 53.7338C13.7486 56.6516 14.0325 60.6809 16.6306 63.279C19.2282 65.8763 23.2575 66.1606 26.1753 64.1429C26.3248 64.041 26.4727 63.9336 26.6171 63.8178C26.6338 63.8044 26.6508 63.792 26.667 63.7783C26.8565 63.6245 27.0407 63.4581 27.2203 63.279L29.4136 61.0862V61.0857L52.6524 37.8459C55.5773 34.9218 55.5773 30.1803 52.6527 27.2557Z" fill="white"/>
<path d="M83.4096 53.6614H65.6983C65.6983 55.4119 66.2562 56.6956 67.3718 57.5359C68.4875 58.3529 69.6962 58.7497 70.9978 58.7497C72.3575 58.7497 73.4268 58.5631 74.2053 58.1896C75.0072 57.816 75.9254 57.1041 76.9481 56.0422L83.0378 59.0764C80.4925 63.348 76.2624 65.472 70.3471 65.472C66.6862 65.472 63.5369 64.2116 60.9104 61.6907C58.2722 59.1699 56.9591 56.1238 56.9591 52.5411C56.9591 48.9698 58.2722 45.9004 60.9104 43.3445C63.5369 40.8004 66.6862 39.5166 70.3471 39.5166C74.2169 39.5166 77.3664 40.6603 79.7836 42.9244C82.2243 45.1652 83.4562 48.3746 83.4562 52.5411C83.4562 53.1013 83.4328 53.4746 83.4096 53.6614ZM65.9309 48.9931H75.2281C75.0421 47.721 74.5309 46.7407 73.6941 46.0521C72.8806 45.3751 71.8461 45.0251 70.5794 45.0251C69.1848 45.0251 68.0691 45.3987 67.2324 46.1455C66.4188 46.869 65.9889 47.8144 65.9309 48.9931Z" fill="white"/>
<path d="M83.7321 26.5855C84.7199 25.5935 85.8938 25.0917 87.2652 25.0917C88.6247 25.0917 89.787 25.5935 90.7516 26.5855C91.7395 27.5892 92.239 28.7679 92.239 30.1334C92.239 31.5105 91.7395 32.6892 90.7516 33.6812C89.787 34.6499 88.6247 35.1284 87.2652 35.1284C85.8938 35.1284 84.7199 34.6499 83.7321 33.6812C82.7327 32.6892 82.2447 31.5105 82.2447 30.1334C82.2447 28.7679 82.7327 27.5892 83.7321 26.5855ZM82.8953 40.2635V64.7717H91.3559V40.2635H82.8953Z" fill="white"/>
<path d="M116.406 40.2635L104.319 58.3296H115.476V64.7718H90.1874L102.274 46.7057H92.1864V40.2635H116.406Z" fill="white"/>
<path d="M139.74 53.6614H122.029C122.029 55.4119 122.586 56.6956 123.702 57.5359C124.818 58.3529 126.027 58.7497 127.328 58.7497C128.688 58.7497 129.757 58.5631 130.536 58.1896C131.338 57.816 132.256 57.1041 133.278 56.0422L139.368 59.0764C136.823 63.348 132.593 65.472 126.677 65.472C123.016 65.472 119.867 64.2116 117.241 61.6907C114.603 59.1699 113.289 56.1238 113.289 52.5411C113.289 48.9698 114.603 45.9004 117.241 43.3445C119.867 40.8004 123.016 39.5166 126.677 39.5166C130.547 39.5166 133.697 40.6603 136.114 42.9244C138.554 45.1652 139.786 48.3746 139.786 52.5411C139.786 53.1013 139.763 53.4746 139.74 53.6614ZM122.261 48.9931H131.558C131.372 47.721 130.861 46.7407 130.024 46.0521C129.211 45.3751 128.176 45.0251 126.91 45.0251C125.515 45.0251 124.399 45.3987 123.563 46.1455C122.749 46.869 122.319 47.8144 122.261 48.9931Z" fill="white"/>
<path d="M139.226 64.7718V40.2635H147.686V43.7647H147.779C147.838 43.648 147.93 43.4846 148.058 43.2979C148.209 43.1111 148.523 42.7844 148.988 42.3175C149.476 41.8274 149.987 41.3839 150.522 41.0104C151.08 40.637 151.777 40.2985 152.614 39.9834C153.474 39.68 154.357 39.5166 155.264 39.5166C156.158 39.5166 157.053 39.6566 157.96 39.9367C158.855 40.1935 159.505 40.4386 159.912 40.6837L160.563 41.0571L157.03 48.2462C156.007 47.3474 154.543 46.8923 152.66 46.8923C151.638 46.8923 150.754 47.1258 150.011 47.5926C149.29 48.036 148.779 48.5729 148.477 49.2265C148.198 49.8566 147.989 50.3819 147.872 50.8137C147.745 51.2571 147.686 51.6073 147.686 51.8874V64.7718H139.226Z" fill="white"/>
</svg>
